<?xml version="1.0" standalone="no"?>
<!DOCTYPE svg PUBLIC "-//W3C//DTD SVG 1.1//EN" "http://www.w3.org/Graphics/SVG/1.1/DTD/svg11.dtd" >
<svg xmlns="http://www.w3.org/2000/svg">
<metadata></metadata>
<defs>
<font id="hyperdigitalregular" horiz-adv-x="992" >
<font-face units-per-em="2048" ascent="1638" descent="-410" />
<missing-glyph horiz-adv-x="384" />
<glyph horiz-adv-x="0" />
<glyph horiz-adv-x="682" />
<glyph unicode=" "  horiz-adv-x="384" />
<glyph unicode="&#x09;" horiz-adv-x="384" />
<glyph unicode="&#xa0;" horiz-adv-x="384" />
<glyph unicode="A" d="M0 0v896l128 128h640l128 -128v-896h-256v256h-384v-256h-256zM256 512h384v256h-384v-256z" />
<glyph unicode="B" d="M0 0v1024h768l128 -128v-768l-128 -128h-768zM256 256h384v128h-384v-128zM256 640h384v128h-384v-128z" />
<glyph unicode="C" d="M0 128v768l128 128h768v-256h-640v-512h640v-256h-768z" />
<glyph unicode="D" d="M0 0v1024h768l128 -128v-768l-128 -128h-768zM256 256h384v512h-384v-512z" />
<glyph unicode="E" d="M0 0v1024h896v-256h-640v-128h512v-256h-512v-128h640v-256h-896z" />
<glyph unicode="F" d="M0 0v1024h896v-256h-640v-128h512v-256h-512v-384h-256z" />
<glyph unicode="G" d="M0 128v768l128 128h768v-256h-640v-512h384v256h256v-512h-768z" />
<glyph unicode="H" d="M0 0v1024h256v-384h384v384h256v-1024h-256v384h-384v-384h-256z" />
<glyph unicode="I" horiz-adv-x="352" d="M0 0v1024h256v-1024h-256z" />
<glyph unicode="J" horiz-adv-x="736" d="M0 128v256h256v-128h128v768h256v-896l-128 -128h-384z" />
<glyph unicode="K" horiz-adv-x="1120" d="M0 0v1024h256v-256l256 256h384l-512 -512l512 -512h-384l-256 256v-256h-256z" />
<glyph unicode="L" d="M0 0v1024h256v-768h640v-256h-896z" />
<glyph unicode="M" d="M0 0v1024h128l320 -320l320 320h128v-1024h-256v512l-192 -192l-192 192v-512h-256z" />
<glyph unicode="N" d="M0 0v1024h128l512 -512v512h256v-1024h-128l-512 512v-512h-256z" />
<glyph unicode="O" d="M0 128v768l128 128h640l128 -128v-768l-128 -128h-640zM256 256h384v512h-384v-512z" />
<glyph unicode="P" d="M0 0v1024h768l128 -128v-384l-128 -128h-512v-384h-256zM256 640h384v128h-384v-128z" />
<glyph unicode="Q" d="M0 128v768l128 128h640l128 -128v-768l-128 -128h-128v-128h256v-256h-384l-128 128v256h-256zM256 256h384v512h-384v-512z" />
<glyph unicode="R" d="M0 0v1024h768l128 -128v-384l-128 -128h-128l256 -256v-128h-256l-384 384v-384h-256zM256 640h384v128h-384v-128z" />
<glyph unicode="S" d="M0 0v256h640v128h-512l-128 128v384l128 128h768v-256h-640v-128h512l128 -128v-384l-128 -128h-768z" />
<glyph unicode="T" d="M0 768v256h896v-256h-256v-768h-384v768h-256z" />
<glyph unicode="U" d="M0 128v896h256v-768h384v768h256v-896l-128 -128h-640z" />
<glyph unicode="V" d="M0 384v640h256v-512l192 -192l192 192v512h256v-640l-384 -384h-128z" />
<glyph unicode="W" horiz-adv-x="1120" d="M0 256v768h256v-640l64 -64l64 64v640h256v-640l64 -64l64 64v640h256v-768l-256 -256h-128l-128 128l-128 -128h-128z" />
<glyph unicode="X" d="M0 0v384l128 128l-128 128v384h256v-384h384v384h256v-384l-128 -128l128 -128v-384h-256v384h-384v-384h-256z" />
<glyph unicode="Y" d="M0 0v256h640v128h-512l-128 128v512h256v-384h384v384h256v-896l-128 -128h-768z" />
<glyph unicode="Z" d="M0 0v256l512 512h-512v256h896v-256l-512 -512h512v-256h-896z" />
<glyph unicode="a" horiz-adv-x="736" d="M0 128v384l128 128h512v-640h-512zM256 256h128v128h-128v-128z" />
<glyph unicode="b" horiz-adv-x="736" d="M0 0v1024h256v-384h256l128 -128v-384l-128 -128h-512zM256 256h128v128h-128v-128z" />
<glyph unicode="c" horiz-adv-x="736" d="M0 128v384l128 128h512v-256h-384v-128h384v-256h-512z" />
<glyph unicode="d" horiz-adv-x="736" d="M0 128v384l128 128h256v384h256v-1024h-512zM256 256h128v128h-128v-128z" />
<glyph unicode="e" horiz-adv-x="608" d="M0 128v384l128 128h384v-256l-128 -256h128v-128h-384zM256 256l128 128h-128v-128z" />
<glyph unicode="f" horiz-adv-x="608" d="M0 0v896l128 128h512v-256h-384v-128h256v-256h-256v-384h-256z" />
<glyph unicode="g" horiz-adv-x="736" d="M0 128v384l128 128h512v-1024l-128 -128h-256v256h128v256h-256zM256 256h128v128h-128v-128z" />
<glyph unicode="h" horiz-adv-x="736" d="M0 0v1024h256v-384h256l128 -128v-512h-256v384h-128v-384h-256z" />
<glyph unicode="i" horiz-adv-x="352" d="M0 0v640h256v-640h-256zM0 768v256h256v-256h-256z" />
<glyph unicode="j" horiz-adv-x="352" d="M0 -512v1152h256v-1024l-128 -128h-128zM0 768v256h256v-256h-256z" />
<glyph unicode="k" horiz-adv-x="736" d="M0 0v1024h256v-256l128 128h128v-256l-128 -128l256 -256v-256h-128l-256 256v-256h-256z" />
<glyph unicode="l" horiz-adv-x="352" d="M0 128v896h256v-1024h-128z" />
<glyph unicode="m" horiz-adv-x="1120" d="M0 0v640h896l128 -128v-512h-256v384h-128v-384h-256v384h-128v-384h-256z" />
<glyph unicode="n" horiz-adv-x="736" d="M0 0v640h512l128 -128v-512h-256v384h-128v-384h-256z" />
<glyph unicode="o" horiz-adv-x="736" d="M0 128v384l128 128h384l128 -128v-384l-128 -128h-384zM256 256h128v128h-128v-128z" />
<glyph unicode="p" horiz-adv-x="736" d="M0 -512v1152h512l128 -128v-384l-128 -128h-256v-512h-256zM256 256h128v128h-128v-128z" />
<glyph unicode="q" horiz-adv-x="736" d="M0 128v384l128 128h512v-1152h-256v512h-256zM256 256h128v128h-128v-128z" />
<glyph unicode="r" horiz-adv-x="736" d="M0 0v640h512l128 -128v-256h-256v128h-128v-384h-256z" />
<glyph unicode="s" horiz-adv-x="736" d="M0 0v256h256l-256 256v128h640v-256h-256l256 -256v-128h-640z" />
<glyph unicode="t" horiz-adv-x="608" d="M0 128v896h256v-384h256v-256h-256v-128h256v-256h-384z" />
<glyph unicode="u" horiz-adv-x="736" d="M0 128v512h256v-384h128v384h256v-640h-512z" />
<glyph unicode="v" horiz-adv-x="736" d="M0 512v128h256v-128l64 -128l64 128v128h256v-128l-256 -512h-128z" />
<glyph unicode="w" horiz-adv-x="1120" d="M0 512v128h256v-128l64 -128l64 128h256l64 -128l64 128v128h256v-128l-256 -512h-128l-128 256l-128 -256h-128z" />
<glyph unicode="x" horiz-adv-x="736" d="M0 0v128l192 192l-192 192v128h256v-128l64 -64l64 64v128h256v-128l-192 -192l192 -192v-128h-256v128l-64 64l-64 -64v-128h-256z" />
<glyph unicode="y" horiz-adv-x="736" d="M0 128v512h256v-384h128v384h256v-1024l-128 -128h-256v256h128v256h-256z" />
<glyph unicode="z" horiz-adv-x="736" d="M0 0v128l256 256h-256v256h640v-128l-256 -256h256v-256h-640z" />
<glyph unicode="&#x2000;" horiz-adv-x="682" />
<glyph unicode="&#x2001;" horiz-adv-x="1365" />
<glyph unicode="&#x2002;" horiz-adv-x="682" />
<glyph unicode="&#x2003;" horiz-adv-x="1365" />
<glyph unicode="&#x2004;" horiz-adv-x="455" />
<glyph unicode="&#x2005;" horiz-adv-x="341" />
<glyph unicode="&#x2006;" horiz-adv-x="227" />
<glyph unicode="&#x2007;" horiz-adv-x="227" />
<glyph unicode="&#x2008;" horiz-adv-x="170" />
<glyph unicode="&#x2009;" horiz-adv-x="273" />
<glyph unicode="&#x200a;" horiz-adv-x="75" />
<glyph unicode="&#x202f;" horiz-adv-x="273" />
<glyph unicode="&#x205f;" horiz-adv-x="341" />
<glyph unicode="&#x25fc;" horiz-adv-x="640" d="M0 0v640h640v-640h-640z" />
</font>
</defs>
</svg>
