<?xml version="1.0" standalone="no"?>
<!DOCTYPE svg PUBLIC "-//W3C//DTD SVG 1.1//EN" "http://www.w3.org/Graphics/SVG/1.1/DTD/svg11.dtd" >
<svg xmlns="http://www.w3.org/2000/svg">
<metadata></metadata>
<defs>
<font id="hyperdigital_shadowregular" horiz-adv-x="1062" >
<font-face units-per-em="2048" ascent="1638" descent="-410" />
<missing-glyph horiz-adv-x="384" />
<glyph horiz-adv-x="0" />
<glyph horiz-adv-x="682" />
<glyph unicode=" "  horiz-adv-x="384" />
<glyph unicode="&#x09;" horiz-adv-x="384" />
<glyph unicode="&#xa0;" horiz-adv-x="384" />
<glyph unicode="A" d="M0 0v896l128 128h640l128 -128l70 -70v-896h-256l-70 70v186h-314v-256l-184 -72l-72 72zM40 40h176v256h464v-256h176v840l-104 104h-608l-104 -104v-840zM216 472v336h464v-336h-464zM326 512h314v186h-314v-186z" />
<glyph unicode="B" d="M0 0v1024h768l128 -128l70 -70v-768l-128 -128l-696 -72l-72 72zM40 40h712l104 104v736l-104 104h-712v-944zM216 216v208h464v-208h-464zM216 600v208h464v-208h-464zM326 256h314v58h-314v-58zM326 640h314v58h-314v-58z" />
<glyph unicode="C" d="M0 128v768l128 128h768l70 -70v-256h-640v-442h570l70 -70v-256l-696 -72l-72 72l-70 70zM40 144l104 -104h712v176h-640v592h640v176h-712l-104 -104v-736z" />
<glyph unicode="D" d="M0 0v1024h768l128 -128l70 -70v-768l-128 -128l-696 -72l-72 72zM40 40h712l104 104v736l-104 104h-712v-944zM216 216v592h464v-592h-464zM326 256h314v442h-314v-442z" />
<glyph unicode="E" d="M0 0v1024h896l70 -70v-256h-640v-58h442l70 -70v-256h-512v-58h570l70 -70v-256l-824 -72l-72 72zM40 40h816v176h-640v208h512v176h-512v208h640v176h-816v-944z" />
<glyph unicode="F" d="M0 0v1024h896l70 -70v-256h-640v-58h442l70 -70v-256h-512v-384l-184 -72l-72 72zM40 40h176v384h512v176h-512v208h640v176h-816v-944z" />
<glyph unicode="G" d="M0 128v768l128 128h768l70 -70v-256h-640v-442h314v256h256l70 -70v-512l-696 -72l-72 72l-70 70zM40 144l104 -104h712v432h-176v-256h-464v592h640v176h-712l-104 -104v-736z" />
<glyph unicode="H" d="M0 0v1024h256l70 -70v-314h314v384h256l70 -70v-1024h-256l-70 70v314h-314v-384l-184 -72l-72 72zM40 40h176v384h464v-384h176v944h-176v-384h-464v384h-176v-944z" />
<glyph unicode="I" horiz-adv-x="422" d="M0 0v1024h256l70 -70v-1024l-184 -72l-72 72zM40 40h176v944h-176v-944z" />
<glyph unicode="J" horiz-adv-x="806" d="M0 128v256h256l70 -70v-58h58v768h256l70 -70v-896l-128 -128l-312 -72l-72 72l-70 70zM40 144l104 -104h352l104 104v840h-176v-768h-208v128h-176v-200z" />
<glyph unicode="K" horiz-adv-x="1190" d="M0 0v1024h256l70 -70v-116l186 186h384l-452 -506l452 -518l70 -70h-384l-70 70l-186 -70l-184 -72l-72 72zM40 40h176v312l312 -312h272l-472 472l472 472h-272l-312 -312v312h-176v-944z" />
<glyph unicode="L" d="M0 0v1024h256l70 -70v-698h570l70 -70v-256l-824 -72l-72 72zM40 40h816v176h-640v768h-176v-944z" />
<glyph unicode="M" d="M0 0v1024h128l320 -320l320 320h128l70 -70v-1024h-256l-70 70v370l-122 -120l-70 70l-122 -390l-184 -72l-72 72zM40 40h176v568l232 -232l232 232v-568h176v944h-72l-336 -336l-336 336h-72v-944z" />
<glyph unicode="N" d="M0 0v1024h128l512 -512v512h256l70 -70v-1024h-128l-70 70l-464 382l-68 -452h-166zM40 40h176v568l568 -568h72v944h-176v-568l-568 568h-72v-944z" />
<glyph unicode="O" d="M0 128v768l128 128h640l128 -128l70 -70v-768l-128 -128l-568 -72l-72 72l-70 70zM40 144l104 -104h608l104 104v736l-104 104h-608l-104 -104v-736zM216 216v592h464v-592h-464zM326 256h314v442h-314v-442z" />
<glyph unicode="P" d="M0 0v1024h768l128 -128l70 -70v-384l-128 -128h-512v-384l-184 -72l-72 72zM40 40h176v384h536l104 104v352l-104 104h-712v-944zM216 600v208h464v-208h-464zM326 640h314v58h-314v-58z" />
<glyph unicode="Q" d="M0 128v768l128 128h640l128 -128l70 -70v-768l-128 -128h-128v-58h186l70 -70v-256l-312 -72l-72 72l-70 70l-128 128v186h-186l-70 70zM40 144l104 -104h280v-280l104 -104h328v176h-256v208h152l104 104v736l-104 104h-608l-104 -104v-736zM216 216v592h464v-592h-464z M326 256h314v442h-314v-442z" />
<glyph unicode="R" d="M0 0v1024h768l128 -128l70 -70v-384l-128 -128l58 -186l70 -70v-128h-256l-70 70l-328 322l-56 -392h-186zM40 40h176v440l440 -440h200v72l-312 312h208l104 104v352l-104 104h-712v-944zM216 600v208h464v-208h-464zM326 640h314v58h-314v-58z" />
<glyph unicode="S" d="M0 0v256h640v58h-442l-70 70l-128 128v384l128 128h768l70 -70v-256h-640v-58h442l128 -128l70 -70v-384l-128 -128l-696 -72l-72 72zM40 40h712l104 104v352l-104 104h-536v208h640v176h-712l-104 -104v-352l104 -104h536v-208h-640v-176z" />
<glyph unicode="T" d="M0 768v256h896l70 -70v-256h-256v-768l-312 -72l-72 72l-70 70v698h-186zM40 808h256v-768h304v768h256v176h-816v-176z" />
<glyph unicode="U" d="M0 128v896h256l70 -70v-698h314v768h256l70 -70v-896l-128 -128l-568 -72l-72 72l-70 70zM40 144l104 -104h608l104 104v840h-176v-768h-464v768h-176v-840z" />
<glyph unicode="V" d="M0 384v640h256l70 -70l122 -634l192 192v512h256l70 -70v-640l-384 -384l-56 -72l-72 72l-70 70zM40 400l360 -360h96l360 360v584h-176v-488l-232 -232l-232 232v488h-176v-584z" />
<glyph unicode="W" horiz-adv-x="1190" d="M0 256v768h256l70 -70v-640l58 70v640h256l70 -70v-640l58 70v640h256l70 -70v-768l-256 -256h-128l-70 70l-186 -70l-56 -72l-72 72l-70 70zM40 272l232 -232h96l144 144l144 -144h96l232 232v712h-176v-616l-104 -104l-104 104v616h-176v-616l-104 -104l-104 104v616 h-176v-712z" />
<glyph unicode="X" d="M0 0v384l128 128l-128 128v384h256l70 -70v-314h314v384h256l70 -70v-384l-70 -186l70 -70v-384h-256l-70 70v314h-314v-384l-184 -72l-72 72zM40 40h176v384h464v-384h176v328l-144 144l144 144v328h-176v-384h-464v384h-176v-328l144 -144l-144 -144v-328z" />
<glyph unicode="Y" d="M0 0v256h640v58h-442l-70 70l-128 128v512h256l70 -70v-314h314v384h256l70 -70v-896l-128 -128l-696 -72l-72 72zM40 40h712l104 104v840h-176v-384h-464v384h-176v-456l104 -104h536v-208h-640v-176z" />
<glyph unicode="Z" d="M0 0v256l442 442h-372l-70 70v256h896l70 -70v-256l-440 -442h370l70 -70v-256l-824 -72l-72 72zM40 40h816v176h-568l568 568v200h-816v-176h568l-568 -568v-200z" />
<glyph unicode="a" horiz-adv-x="806" d="M0 128v384l128 128h512l70 -70v-640l-440 -72l-72 72l-70 70zM40 144l104 -104h456v560h-456l-104 -104v-352zM216 216v208h208v-208h-208zM326 256h58v58h-58v-58z" />
<glyph unicode="b" horiz-adv-x="806" d="M0 0v1024h256l70 -70v-314h186l128 -128l70 -70v-384l-128 -128l-440 -72l-72 72zM40 40h456l104 104v352l-104 104h-280v384h-176v-944zM216 216v208h208v-208h-208zM326 256h58v58h-58v-58z" />
<glyph unicode="c" horiz-adv-x="806" d="M0 128v384l128 128h512l70 -70v-256h-384v-58h314l70 -70v-256l-440 -72l-72 72l-70 70zM40 144l104 -104h456v176h-384v208h384v176h-456l-104 -104v-352z" />
<glyph unicode="d" horiz-adv-x="806" d="M0 128v384l128 128h256v384h256l70 -70v-1024l-440 -72l-72 72l-70 70zM40 144l104 -104h456v944h-176v-384h-280l-104 -104v-352zM216 216v208h208v-208h-208zM326 256h58v58h-58v-58z" />
<glyph unicode="e" horiz-adv-x="678" d="M0 128v384l128 128h384l70 -70v-256l-92 -186h22l70 -70v-128l-312 -72l-72 72l-70 70zM40 144l104 -104h328v48h-152l152 306v206h-328l-104 -104v-352zM216 160v264h164z" />
<glyph unicode="f" horiz-adv-x="678" d="M0 0v896l128 128h512l70 -70v-256h-384v-58h186l70 -70v-256h-256v-384l-184 -72l-72 72zM40 40h176v384h256v176h-256v208h384v176h-456l-104 -104v-840z" />
<glyph unicode="g" horiz-adv-x="806" d="M0 128v384l128 128h512l70 -70v-1024l-128 -128l-184 -72l-72 72l-70 70v256h128v186h-186l-70 70zM40 144l104 -104h280v-336h-128v-176h200l104 104v968h-456l-104 -104v-352zM216 216v208h208v-208h-208zM326 256h58v58h-58v-58z" />
<glyph unicode="h" horiz-adv-x="806" d="M0 0v1024h256l70 -70v-314h186l128 -128l70 -70v-512h-256l-70 70v314h-58v-384l-184 -72l-72 72zM40 40h176v384h208v-384h176v456l-104 104h-280v384h-176v-944z" />
<glyph unicode="i" horiz-adv-x="422" d="M0 0v640h128l-58 58l-70 70v256h256l70 -70v-256l-150 -58h80l70 -70v-640l-184 -72l-72 72zM40 40h176v560h-176v-560zM40 808h176v176h-176v-176z" />
<glyph unicode="j" horiz-adv-x="422" d="M0 -512v1152h128l-58 58l-70 70v256h256l70 -70v-256l-150 -58h80l70 -70v-1024l-128 -128l-56 -72l-72 72zM40 -472h72l104 104v968h-176v-1072zM40 808h176v176h-176v-176z" />
<glyph unicode="k" horiz-adv-x="806" d="M0 0v1024h256l70 -70v-116l58 58h128l40 -210l-120 -180l208 -250l70 -70v-256h-128l-70 70l-248 218l12 -252l-206 -36zM40 40h176v312l312 -312h72v200l-272 272l144 144v200h-72l-184 -184v312h-176v-944z" />
<glyph unicode="l" horiz-adv-x="422" d="M0 128v896h256l70 -70v-1024l-56 -72l-72 72l-70 70zM40 144l104 -104h72v944h-176v-840z" />
<glyph unicode="m" horiz-adv-x="1190" d="M0 0v640h896l128 -128l70 -70v-512h-256l-70 70v314h-58v-384h-256l-70 70v314h-58v-384l-184 -72l-72 72zM40 40h176v384h208v-384h176v384h208v-384h176v456l-104 104h-840v-560z" />
<glyph unicode="n" horiz-adv-x="806" d="M0 0v640h512l128 -128l70 -70v-512h-256l-70 70v314h-58v-384l-184 -72l-72 72zM40 40h176v384h208v-384h176v456l-104 104h-456v-560z" />
<glyph unicode="o" horiz-adv-x="806" d="M0 128v384l128 128h384l128 -128l70 -70v-384l-128 -128l-312 -72l-72 72l-70 70zM40 144l104 -104h352l104 104v352l-104 104h-352l-104 -104v-352zM216 216v208h208v-208h-208zM326 256h58v58h-58v-58z" />
<glyph unicode="p" horiz-adv-x="806" d="M0 -512v1152h512l128 -128l70 -70v-384l-128 -128h-256v-512l-184 -72l-72 72zM40 -472h176v512h280l104 104v352l-104 104h-456v-1072zM216 216v208h208v-208h-208zM326 256h58v58h-58v-58z" />
<glyph unicode="q" horiz-adv-x="806" d="M0 128v384l128 128h512l70 -70v-1152l-184 -72l-72 72l-70 70v442h-186l-70 70zM40 144l104 -104h280v-512h176v1072h-456l-104 -104v-352zM216 216v208h208v-208h-208zM326 256h58v58h-58v-58z" />
<glyph unicode="r" horiz-adv-x="806" d="M0 0v640h512l128 -128l70 -70v-256h-256l-70 70v58h-58v-384l-184 -72l-72 72zM40 40h176v384h208v-128h176v200l-104 104h-456v-560z" />
<glyph unicode="s" horiz-adv-x="806" d="M0 0v256h256l-256 256v128h640l34 -238l-244 -28l210 -246l70 -70v-128l-568 -72l-72 72zM40 40h560v72l-312 312h312v176h-560v-72l312 -312h-312v-176z" />
<glyph unicode="t" horiz-adv-x="678" d="M0 128v896h256l70 -70v-314h186l70 -70v-256h-256v-58h186l70 -70v-256l-312 -72l-72 72l-70 70zM40 144l104 -104h328v176h-256v208h256v176h-256v384h-176v-840z" />
<glyph unicode="u" horiz-adv-x="806" d="M0 128v512h256l70 -70v-314h58v384h256l70 -70v-640l-440 -72l-72 72l-70 70zM40 144l104 -104h456v560h-176v-384h-208v384h-176v-456z" />
<glyph unicode="v" horiz-adv-x="806" d="M0 512v128h256l70 -70v-128q6 -12 12 -22l46 92v128h256l70 -70v-128l-256 -512l-56 -72l-72 72l-70 70zM40 522l240 -482h80l240 482v78h-176v-98l-104 -208l-104 208v98h-176v-78z" />
<glyph unicode="w" horiz-adv-x="1190" d="M0 512v128h256l70 -70v-128q6 -12 12 -22l46 92h256l70 -70q6 -12 12 -22l46 92v128h256l70 -70v-128l-256 -512h-128l-70 70l-74 150l-112 -220l-56 -72l-72 72l-70 70zM40 522l240 -482h80l152 306l152 -306h80l240 482v78h-176v-98l-104 -208l-88 178h-208l-88 -178 l-104 208v98h-176v-78z" />
<glyph unicode="x" horiz-adv-x="806" d="M0 0v128l192 192l-192 192v128h256l70 -70v-128l58 70v128h256l70 -70l-232 -246l162 -196l70 -70v-128h-256l-70 70l6 122l-62 54l-58 -56l-2 -166l-198 -24zM40 40h176v104l104 104l104 -104v-104h176v72l-208 208l208 208v72h-176v-104l-104 -104l-104 104v104h-176 v-72l208 -208l-208 -208v-72z" />
<glyph unicode="y" horiz-adv-x="806" d="M0 128v512h256l70 -70v-314h58v384h256l70 -70v-1024l-128 -128l-184 -72l-72 72l-70 70v256h128v186h-186l-70 70zM40 144l104 -104h280v-336h-128v-176h200l104 104v968h-176v-384h-208v384h-176v-456z" />
<glyph unicode="z" horiz-adv-x="806" d="M0 0v128l186 186h-116l-70 70v256h640l70 -70v-128l-184 -186h114l70 -70v-256l-568 -72l-72 72zM40 40h560v176h-312l312 312v72h-560v-176h312l-312 -312v-72z" />
<glyph unicode="&#x2000;" horiz-adv-x="682" />
<glyph unicode="&#x2001;" horiz-adv-x="1365" />
<glyph unicode="&#x2002;" horiz-adv-x="682" />
<glyph unicode="&#x2003;" horiz-adv-x="1365" />
<glyph unicode="&#x2004;" horiz-adv-x="455" />
<glyph unicode="&#x2005;" horiz-adv-x="341" />
<glyph unicode="&#x2006;" horiz-adv-x="227" />
<glyph unicode="&#x2007;" horiz-adv-x="227" />
<glyph unicode="&#x2008;" horiz-adv-x="170" />
<glyph unicode="&#x2009;" horiz-adv-x="273" />
<glyph unicode="&#x200a;" horiz-adv-x="75" />
<glyph unicode="&#x202f;" horiz-adv-x="273" />
<glyph unicode="&#x205f;" horiz-adv-x="341" />
<glyph unicode="&#x25fc;" horiz-adv-x="640" d="M0 0v640h640v-640h-640z" />
</font>
</defs>
</svg>
